PathFileType	3	(X/Y/Z)	feet_movements_1__view2_aligned.trc
DataRate	CameraRate	NumFrames	NumMarkers	Units	OrigDataRate	OrigDataStartFrame	OrigNumFrames
100.0	100.0	15	19	mm	100.0	412	1840
Frame#	Time	pelvis			neck			head			hip_left			hip_right			knee_left			knee_right			ankle_left			ankle_right			heel_left			heel_right			toe_left			toe_right			shoulder_left			shoulder_right			elbow_left			elbow_right			wrist_left			wrist_right			
		X1	Y1	Z1	X2	Y2	Z2	X3	Y3	Z3	X4	Y4	Z4	X5	Y5	Z5	X6	Y6	Z6	X7	Y7	Z7	X8	Y8	Z8	X9	Y9	Z9	X10	Y10	Z10	X11	Y11	Z11	X12	Y12	Z12	X13	Y13	Z13	X14	Y14	Z14	X15	Y15	Z15	X16	Y16	Z16	X17	Y17	Z17	X18	Y18	Z18	X19	Y19	Z19	
412	4.11000	78.918808	936.701202	333.950755	123.591368	1393.081278	602.348283	132.181557	1541.048390	542.592118	13.514432	964.208682	308.553263	144.323655	909.193688	359.348297	56.121198	1129.418738	-80.667846	229.957843	507.819072	247.716289	32.407593	960.775103	-448.827639	109.265452	157.808207	412.028005	18.641141	910.135886	-464.027546	80.487439	123.225300	451.084582	101.037373	1019.142472	-625.736246	186.097775	64.534670	277.809233	-42.821440	1371.324520	578.053405	284.488903	1329.541976	646.755452	-222.512003	1209.571196	436.582332	435.231786	1124.721542	536.928386	-378.114378	1130.794731	264.741898	509.346885	1058.895102	316.368837
413	4.12000	78.062096	937.063292	332.612529	122.800457	1392.524563	602.222351	131.355391	1540.574152	543.155882	12.749440	964.672021	307.115123	143.375130	909.454534	358.109972	55.148037	1129.079912	-82.475408	229.743125	508.156627	246.775833	31.119820	962.917394	-451.408167	108.618582	158.362259	411.127192	17.240243	912.413336	-466.867425	79.663931	123.921507	450.136488	99.965251	1021.998942	-627.963955	185.742543	64.486786	277.509535	-43.490054	1371.276191	577.603050	283.459300	1329.055394	646.863721	-223.290677	1209.954698	436.132277	434.676673	1124.591540	537.399560	-379.178754	1130.700481	264.800806	510.312664	1058.194020	317.593272
414	4.13000	77.205385	937.425381	331.274303	122.009546	1391.967847	602.096419	130.529225	1540.099914	543.719646	11.984448	965.135360	305.676983	142.426605	909.715381	356.871648	54.174877	1128.741086	-84.282970	229.528408	508.494182	245.835378	29.832047	965.059685	-453.988696	107.971712	158.916311	410.226380	15.839345	914.690787	-469.707303	78.840422	124.617713	449.188395	98.893129	1024.855411	-630.191664	185.387310	64.438903	277.209837	-44.158669	1371.227861	577.152696	282.429696	1328.568812	646.971989	-224.069352	1210.338201	435.682221	434.121559	1124.461537	537.870733	-380.243130	1130.606231	264.859715	511.278442	1057.492938	318.817707
415	4.14000	76.348673	937.787471	329.936077	121.218635	1391.411132	601.970486	129.703059	1539.625675	544.283411	11.219457	965.598699	304.238843	141.478080	909.976228	355.633323	53.201717	1128.402260	-86.090532	229.313690	508.831737	244.894923	28.544273	967.201975	-456.569225	107.324842	159.470363	409.325567	14.438448	916.968237	-472.547182	78.016914	125.313920	448.240301	97.821007	1027.711880	-632.419373	185.032078	64.391019	276.910139	-44.827283	1371.179532	576.702342	281.400093	1328.082230	647.080258	-224.848027	1210.721704	435.232165	433.566445	1124.331535	538.341907	-381.307505	1130.511981	264.918623	512.244221	1056.791857	320.042141
416	4.15000	75.491962	938.149560	328.597851	120.427724	1390.854416	601.844554	128.876893	1539.151437	544.847175	10.454465	966.062039	302.800702	140.529554	910.237074	354.394998	52.228557	1128.063434	-87.898094	229.098973	509.169292	243.954467	27.256500	969.344266	-459.149754	106.677973	160.024415	408.424755	13.037550	919.245688	-475.387060	77.193405	126.010127	447.292207	96.748885	1030.568349	-634.647082	184.676846	64.343135	276.610440	-45.495897	1371.131203	576.251988	280.370489	1327.595649	647.188526	-225.626702	1211.105206	434.782109	433.011331	1124.201532	538.813080	-382.371881	1130.417731	264.977532	513.210000	1056.090775	321.266576
417	4.16000	74.635250	938.511650	327.259625	119.636813	1390.297700	601.718622	128.050728	1538.677199	545.410940	9.689474	966.525378	301.362562	139.581029	910.497921	353.156674	51.255397	1127.724608	-89.705655	228.884256	509.506847	243.014012	25.968727	971.486557	-461.730282	106.031103	160.578467	407.523942	11.636652	921.523138	-478.226939	76.369897	126.706333	446.344114	95.676763	1033.424818	-636.874791	184.321614	64.295252	276.310742	-46.164512	1371.082874	575.801634	279.340886	1327.109067	647.296795	-226.405377	1211.488709	434.332053	432.456218	1124.071529	539.284254	-383.436257	1130.323480	265.036440	514.175779	1055.389693	322.491010
418	4.17000	73.778539	938.873739	325.921399	118.845903	1389.740985	601.592690	127.224562	1538.202961	545.974704	8.924482	966.988717	299.924422	138.632504	910.758768	351.918349	50.282236	1127.385782	-91.513217	228.669538	509.844402	242.073557	24.680954	973.628848	-464.310811	105.384233	161.132519	406.623129	10.235754	923.800589	-481.066817	75.546389	127.402540	445.396020	94.604641	1036.281287	-639.102500	183.966381	64.247368	276.011044	-46.833126	1371.034545	575.351279	278.311282	1326.622485	647.405064	-227.184052	1211.872212	433.881997	431.901104	1123.941527	539.755428	-384.500632	1130.229230	265.095349	515.141558	1054.688611	323.715445
419	4.18000	72.921827	939.235829	324.583173	118.054992	1389.184269	601.466757	126.398396	1537.728722	546.538468	8.159491	967.452056	298.486282	137.683979	911.019615	350.680024	49.309076	1127.046955	-93.320779	228.454821	510.181957	241.133101	23.393181	975.771139	-466.891340	104.737363	161.686571	405.722317	8.834857	926.078040	-483.906696	74.722880	128.098746	444.447927	93.532519	1039.137757	-641.330209	183.611149	64.199484	275.711346	-47.501741	1370.986215	574.900925	277.281679	1326.135903	647.513332	-227.962727	1212.255714	433.431942	431.345990	1123.811524	540.226601	-385.565008	1130.134980	265.154257	516.107337	1053.987529	324.939880
420	4.19000	72.065116	939.597918	323.244947	117.264081	1388.627554	601.340825	125.572230	1537.254484	547.102233	7.394499	967.915395	297.048141	136.735454	911.280461	349.441700	48.335916	1126.708129	-95.128341	228.240103	510.519512	240.192646	22.105407	977.913430	-469.471869	104.090493	162.240623	404.821504	7.433959	928.355490	-486.746575	73.899372	128.794953	443.499833	92.460397	1041.994226	-643.557918	183.255917	64.151600	275.411647	-48.170355	1370.937886	574.450571	276.252075	1325.649321	647.621601	-228.741401	1212.639217	432.981886	430.790877	1123.681522	540.697775	-386.629383	1130.040730	265.213166	517.073116	1053.286448	326.164314
421	4.20000	71.208404	939.960008	321.906721	116.473170	1388.070838	601.214893	124.746064	1536.780246	547.665997	6.629507	968.378735	295.610001	135.786929	911.541308	348.203375	47.362756	1126.369303	-96.935903	228.025386	510.857067	239.252191	20.817634	980.055720	-472.052397	103.443623	162.794675	403.920691	6.033061	930.632941	-489.586453	73.075863	129.491160	442.551740	91.388274	1044.850695	-645.785628	182.900685	64.103717	275.111949	-48.838970	1370.889557	574.000217	275.222472	1325.162740	647.729869	-229.520076	1213.022720	432.531830	430.235763	1123.551519	541.168948	-387.693759	1129.946480	265.272074	518.038895	1052.585366	327.388749
422	4.21000	70.351693	940.322097	320.568495	115.682259	1387.514122	601.088961	123.919898	1536.306008	548.229761	5.864516	968.842074	294.171861	134.838404	911.802155	346.965050	46.389595	1126.030477	-98.743464	227.810668	511.194622	238.311736	19.529861	982.198011	-474.632926	102.796753	163.348727	403.019879	4.632163	932.910391	-492.426332	72.252355	130.187366	441.603646	90.316152	1047.707164	-648.013337	182.545452	64.055833	274.812251	-49.507584	1370.841228	573.549863	274.192868	1324.676158	647.838138	-230.298751	1213.406222	432.081774	429.680649	1123.421517	541.640122	-388.758135	1129.852230	265.330983	519.004674	1051.884284	328.613184
423	4.22000	69.635541	940.690871	319.470209	114.754574	1387.061616	601.042752	122.994777	1535.879312	548.709711	5.262583	969.271312	292.952660	134.008033	912.110465	345.987678	46.309187	1126.224576	-100.020096	227.654410	511.535468	237.684947	19.780964	983.732083	-476.293645	102.421505	163.782175	402.228054	4.829491	934.516605	-494.228456	71.717059	130.733577	440.745810	90.917284	1049.536957	-649.419228	182.564238	63.984938	274.622028	-50.324269	1370.856937	573.028448	273.053249	1324.261100	648.104161	-231.112155	1213.724363	431.522904	428.959137	1123.291489	542.300314	-389.626012	1129.769688	264.990774	519.351409	1051.606997	329.753612
424	4.23000	68.919390	941.059646	318.371923	113.826890	1386.609110	600.996543	122.069656	1535.452616	549.189660	4.660650	969.700551	291.733460	133.177663	912.418775	345.010306	46.228778	1126.418675	-101.296728	227.498152	511.876313	237.058158	20.032067	985.266155	-477.954363	102.046257	164.215622	401.436228	5.026818	936.122820	-496.030581	71.181763	131.279787	439.887974	91.518415	1051.366749	-650.825119	182.583023	63.914044	274.431804	-51.140955	1370.872646	572.507033	271.913629	1323.846042	648.370184	-231.925559	1214.042504	430.964033	428.237624	1123.161461	542.960507	-390.493889	1129.687147	264.650566	519.698143	1051.329709	330.894039
425	4.24000	68.203238	941.428420	317.273636	112.899205	1386.156604	600.950334	121.144536	1535.025920	549.669610	4.058718	970.129789	290.514260	132.347292	912.727086	344.032933	46.148369	1126.612773	-102.573360	227.341894	512.217159	236.431369	20.283171	986.800227	-479.615082	101.671008	164.649069	400.644403	5.224146	937.729034	-497.832706	70.646467	131.825998	439.030139	92.119546	1053.196542	-652.231010	182.601809	63.843149	274.241581	-51.957641	1370.888355	571.985619	270.774010	1323.430984	648.636206	-232.738963	1214.360644	430.405163	427.516111	1123.031433	543.620699	-391.361766	1129.604605	264.310358	520.044878	1051.052422	332.034467
426	4.25000	67.487087	941.797194	316.175350	111.971521	1385.704097	600.904125	120.219415	1534.599224	550.149559	3.456785	970.559028	289.295059	131.516922	913.035396	343.055561	46.067960	1126.806872	-103.849992	227.185636	512.558004	235.804580	20.534274	988.334299	-481.275801	101.295760	165.082517	399.852578	5.421473	939.335249	-499.634830	70.111172	132.372208	438.172303	92.720677	1055.026334	-653.636901	182.620594	63.772255	274.051358	-52.774326	1370.904064	571.464204	269.634391	1323.015926	648.902229	-233.552367	1214.678785	429.846293	426.794599	1122.901406	544.280892	-392.229644	1129.522064	263.970150	520.391613	1050.775135	333.174895
